Coordinates
version=1
nRows=19
nColumns=36
inDegrees=yes

Units are S.I. units (second, meters, Newtons, ...)
If the header above contains a line with 'inDegrees', this indicates whether rotational values are in degrees (yes) or radians (no).

endheader
time	pelvis_tilt	pelvis_list	pelvis_rotation	pelvis_tx	pelvis_ty	pelvis_tz	hip_flexion_r	hip_adduction_r	hip_rotation_r	knee_angle_r	knee_angle_r_beta	ankle_angle_r	subtalar_angle_r	mtp_angle_r	hip_flexion_l	hip_adduction_l	hip_rotation_l	knee_angle_l	knee_angle_l_beta	ankle_angle_l	subtalar_angle_l	mtp_angle_l	lumbar_extension	lumbar_bending	lumbar_rotation	arm_flex_r	arm_add_r	arm_rot_r	elbow_flex_r	pro_sup_r	arm_flex_l	arm_add_l	arm_rot_l	elbow_flex_l	pro_sup_l
      0.00000000	      1.69835414	     -1.27321294	      6.01399640	     -0.11716741	      1.02743112	     -0.18819479	     18.87803488	      1.37437916	     -6.09771748	      3.91999691	      0.06841685	      5.18320135	      2.32716148	     -4.29242104	    -13.09450332	     -0.17432089	      9.81730146	     15.71526780	      0.27428317	     19.42723032	      1.34734707	     -4.29242104	     -8.08407336	      2.12878304	     -7.16291907	    -16.37794563	      0.69920964	    -25.73252161	     43.82883587	    105.35322114	     22.00771380	    -22.23643607	      7.47336225	     71.64080756	     90.06113647
      0.01000000	      1.68470379	     -1.57865061	      6.11892013	     -0.10417361	      1.02703560	     -0.18710927	     18.74655947	      1.81995319	     -6.25188588	      4.62341509	      0.08069382	      4.16595094	      1.41171710	     -4.40267023	    -12.93732259	     -0.57934176	      9.59522019	     17.34790414	      0.30277805	     18.84667893	      0.96126719	     -4.40267023	     -7.89393710	      2.71570310	     -7.07446523	    -16.37963523	      0.72530565	    -26.17297999	     43.22220494	    105.00037048	     21.58073866	    -22.06669130	      7.47604974	     71.96012257	     91.19307640
      0.02000000	      1.87025415	     -1.90505387	      6.19726010	     -0.09117710	      1.02696549	     -0.18600378	     18.43298847	      2.29430232	     -6.62555694	      5.41550130	      0.09451833	      3.49880512	      0.92568735	     -4.42993541	    -12.93831639	     -1.04549009	      9.09479047	     19.02826204	      0.33210582	     18.07810657	      0.50803775	     -4.42993541	     -7.96026541	      3.33481752	     -6.86562712	    -16.46110686	      0.71251194	    -26.33965351	     42.74953043	    104.89633585	     21.26548615	    -21.79466761	      7.53450997	     72.39768607	     91.49124381
      0.03000000	      1.74996897	     -2.23715199	      6.19850241	     -0.07820284	      1.02678588	     -0.18480161	     18.47195612	      2.75856969	     -6.52685611	      6.27418084	      0.10950511	      2.37477542	      0.04203653	     -4.50019706	    -12.56448526	     -1.44501875	      8.75571444	     20.78263610	      0.36272543	     17.12526490	      0.10615146	     -4.50019706	     -7.65593754	      3.93504156	     -6.88894003	    -16.31588401	      0.65979681	    -26.69350411	     42.05471963	    104.68047533	     20.48106053	    -21.66059821	      7.23497569	     72.86730260	     92.12822303
      0.04000000	      1.95726373	     -2.54377873	      6.14516428	     -0.06529757	      1.02729101	     -0.18352849	     18.15003909	      3.22207138	     -6.56769097	      7.19599860	      0.12559387	      1.89365735	     -0.31515053	     -4.52647062	    -12.40410951	     -1.85538573	      8.10622013	     22.74237100	      0.39692925	     15.97885565	     -0.35162724	     -4.52647062	     -7.78984981	      4.51280919	     -6.61170517	    -16.30719725	      0.59583932	    -26.81013605	     41.61093892	    104.59814585	     19.97605317	    -21.35180766	      7.18862781	     73.25794972	     92.37679437
      0.05000000	      1.91132336	     -2.87752099	      6.01872979	     -0.05245105	      1.02783549	     -0.18216161	     18.14789163	      3.68382630	     -6.41504657	      8.26334050	      0.14422250	      1.29413746	     -0.75703581	     -4.57053551	    -11.76720013	     -2.25969548	      7.27395542	     24.98918753	      0.43614360	     14.35866153	     -1.03137359	     -4.57053551	     -7.63677102	      5.09678153	     -6.43808424	    -16.20617294	      0.47247131	    -27.03435281	     41.00204288	    104.47474968	     19.12047276	    -21.06999766	      6.93824729	     73.68067109	     92.74077292
      0.06000000	      1.89061838	     -3.11446838	      5.80405201	     -0.03979202	      1.02872851	     -0.18067748	     18.06297151	      4.06715592	     -6.10310427	      9.28443541	      0.16204397	      0.96445684	     -1.18255300	     -4.63999366	    -10.99821214	     -2.50127981	      6.51347178	     27.48356306	      0.47967867	     12.44108397	     -2.02301997	     -4.63999366	     -7.56351296	      5.54650807	     -6.30975428	    -15.98287735	      0.31089870	    -27.12508330	     40.41669542	    104.35590307	     18.11141098	    -20.78115050	      6.40955012	     74.17222167	     93.24980684
      0.07000000	      1.96942146	     -3.37665125	      5.63287826	     -0.02718296	      1.03003702	     -0.17917366	     17.78307097	      4.46937867	     -5.85518306	     10.22439224	      0.17844931	      0.92712064	     -1.29754194	     -4.71077324	    -10.14590577	     -2.83104322	      5.60494553	     30.19400916	      0.52698487	     10.24635319	     -3.11682316	     -4.71077324	     -7.60888338	      6.00064892	     -6.12752189	    -15.84387634	      0.14122667	    -27.09977809	     39.95327218	    104.27912311	     17.12292073	    -20.42588257	      6.01466907	     74.58755646	     93.71975666
      0.08000000	      2.06879259	     -3.62905874	      5.40845654	     -0.01473566	      1.03159438	     -0.17758136	     17.38208366	      4.87248899	     -5.69304409	     10.98260286	      0.19168258	      1.13142141	     -1.23245256	     -4.78356871	     -9.16136509	     -3.12111756	      4.76876875	     33.11569617	      0.57797793	      7.83026265	     -4.35353034	     -4.78356871	     -7.72617709	      6.44239772	     -5.90262164	    -15.68713603	     -0.05101697	    -27.02960819	     39.61030613	    104.22939955	     16.11138022	    -20.06204195	      5.66831165	     74.92137940	     94.14695670
      0.09000000	      2.19637035	     -3.85793614	      5.25174890	     -0.00239667	      1.03336860	     -0.17603159	     16.80975209	      5.23672465	     -5.65772305	     11.52649791	      0.20117534	      1.56800228	     -0.96617730	     -4.89268170	     -8.03078740	     -3.40483184	      3.98880005	     36.20573627	      0.63190931	      5.05877113	     -5.95247922	     -4.89268170	     -7.88170809	      6.81468321	     -5.78385353	    -15.52145433	     -0.24978156	    -26.81017027	     39.32061071	    104.19313919	     15.00910344	    -19.69097023	      5.21455278	     75.27405456	     94.69291836
      0.10000000	      2.25577436	     -4.08867792	      5.13412031	      0.00977962	      1.03514647	     -0.17445702	     16.19200437	      5.60212979	     -5.67465885	     11.85058828	      0.20683178	      2.03505756	     -0.62837513	     -4.96817905	     -6.64568105	     -3.72923290	      3.23274253	     39.50790466	      0.68954302	      2.38510471	     -7.31261773	     -4.96817905	     -7.96125920	      7.15935089	     -5.58931762	    -15.50530868	     -0.43260032	    -26.64069053	     39.25737867	    104.17601976	     14.00226165	    -19.29883930	      5.01604935	     75.45123006	     95.00764015
      0.11000000	      2.34493559	     -4.29670035	      5.07163604	      0.02177807	      1.03703051	     -0.17296068	     15.42139536	      5.93916895	     -5.83217387	     11.95747215	      0.20869726	      2.68424637	     -0.12001378	     -5.05458974	     -5.19015354	     -4.02035241	      2.61252275	     42.85132281	      0.74789667	     -0.45356439	     -8.98154619	     -5.05458974	     -8.09342007	      7.45862103	     -5.49306066	    -15.44709692	     -0.63531722	    -26.35822235	     39.25043979	    104.15835680	     12.93460352	    -18.91291271	      4.75654162	     75.61863995	     95.30091598
      0.12000000	      2.36270746	     -4.52614563	      5.06621709	      0.03359477	      1.03880968	     -0.17147936	     14.62755734	      6.30512042	     -5.99708487	     11.85578393	      0.20692247	      3.24125333	      0.37277439	     -5.10516579	     -3.52542437	     -4.36527936	      2.05753867	     46.31232678	      0.80830259	     -2.83690432	    -10.33414695	     -5.10516579	     -8.12992848	      7.75451287	     -5.39227908	    -15.48490147	     -0.81726853	    -26.11503316	     39.42603733	    104.15763134	     11.92000816	    -18.55503207	      4.69152556	     75.61811812	     95.43447333
      0.13000000	      2.41269518	     -4.67901621	      5.11794861	      0.04522572	      1.04063633	     -0.17016268	     13.76110542	      6.56768130	     -6.35379846	     11.70656032	      0.20431802	      4.05300443	      1.06432573	     -5.17993148	     -1.87382727	     -4.57466499	      1.66674220	     49.65131684	      0.86657896	     -5.34280737	    -12.26770844	     -5.17993148	     -8.23327113	      7.93996454	     -5.36856110	    -15.46028721	     -1.04235991	    -25.73291903	     39.51783300	    104.13483396	     10.83953567	    -18.11755824	      4.46691614	     75.71064617	     95.59984346
      0.14000000	      2.55001697	     -4.89241450	      5.15976831	      0.05669803	      1.04250061	     -0.16869540	     12.69142003	      6.97452994	     -6.40604114	     11.30531048	      0.19731489	      4.67736625	      1.47129816	     -5.20232274	     -0.28520865	     -4.93124714	      1.21771530	     52.97714920	      0.92462568	     -6.56207731	    -13.21808106	     -5.20232274	     -8.44977181	      8.17024597	     -5.16630394	    -15.45408421	     -1.22127246	    -25.57295778	     39.63686836	    104.13589976	      9.95025223	    -17.74790636	      4.56583298	     75.59988440	     95.63877863
      0.15000000	      2.48519188	     -5.02553603	      5.23080768	      0.06798525	      1.04406832	     -0.16739352	     11.87226117	      7.23542317	     -6.66477791	     10.95198305	      0.19114816	      5.22672843	      2.05255655	     -5.23130996	      1.53083229	     -5.12163323	      0.85986984	     56.14770205	      0.97996227	     -7.64159411	    -14.90223072	     -5.23130996	     -8.43157951	      8.29234187	     -5.10923741	    -15.47658135	     -1.41593532	    -25.31935828	     39.88909616	    104.14581085	      8.92302433	    -17.37453278	      4.58001129	     75.40970710	     95.68496715
      0.16000000	      2.54259759	     -5.08219070	      5.23507868	      0.07912138	      1.04580970	     -0.16610535	     10.91671440	      7.44525128	     -6.76427528	     10.59887247	      0.18498522	      5.73071506	      2.59864090	     -5.25164970	      3.11945387	     -5.20695803	      0.48644558	     59.02535108	      1.03018672	     -8.02233101	    -16.39088351	     -5.25164970	     -8.57621407	      8.31251117	     -4.94890745	    -15.41045498	     -1.64265346	    -25.13245014	     40.02856216	    104.15065213	      7.93792766	    -16.97096378	      4.64289366	     75.19336549	     95.72566015
      0.17000000	      2.42659831	     -4.97418039	      5.22361300	      0.09020816	      1.04735126	     -0.16490701	     10.24700458	      7.37256147	     -7.41645104	     10.45887066	      0.18254173	      6.43356184	      3.90732483	     -5.34471288	      4.83345445	     -5.04499959	      0.09063736	     61.56603750	      1.07453006	     -8.72364149	    -18.69516912	     -5.34471288	     -8.52206529	      8.09699388	     -5.14098986	    -15.22867688	     -1.94787775	    -24.45474261	     40.09588671	    104.10902744	      6.58316552	    -16.59509478	      4.17441394	     75.05786706	     96.06542780
      0.18000000	      2.52461223	     -4.89129933	      5.12467282	      0.10121948	      1.04913885	     -0.16350074	      9.23204390	      7.46501021	     -7.26328356	     10.06480393	      0.17566397	      6.67844550	      4.32895567	     -5.35975006	      6.22184838	     -4.97902311	     -0.37551554	     63.81935781	      1.11385792	     -7.96938494	    -19.71526943	     -5.35975006	     -8.75256644	      7.90333623	     -4.89795338	    -15.10943699	     -2.13095645	    -24.36775965	     40.17217616	    104.10218851	      5.58577962	    -16.26870981	      4.29279307	     74.63533733	     96.10542918
